# xmcd
#
# Track frame offsets:
#	150
#	18129
#	35213
#	52877
#	70834
#	86656
#	107284
#	129773
#	153473
#	173374
#	193827
#	215930
#
# Disc length: 3103 seconds
#
# Revision: 2
# Processed by: cddbd v1.5.1PL0 Copyright (c) Steve Scherf et al.
# Submitted via: EasyCDDAExtractor 7.1.1.1
#
DISCID=980c1d0c
DTITLE=Ray Charles - Genius Loves Company
DYEAR=2004
DGENRE=Blues
TTITLE0=Here we go again (With Norah Jones)
TTITLE1=Sweet potato pie (With James Taylor)
TTITLE2=You don't know me (With  Diana Krall)
TTITLE3=Sorry seems to be the hardest word (With Elton John)
TTITLE4=Fever (With Natalie Cole)
TTITLE5=Do i ever cross your mind (With Bonnie Raitt)
TTITLE6=It was a very good year (With Willie Nelson)
TTITLE7=Hey girl (With Michael McDonald)
TTITLE8=Sinner's prayer (With B.B. King)
TTITLE9=Heaven help us all (With Gladys Knight)
TTITLE10=Over the rainbow (With Johnny Mathis)
TTITLE11=Crazy love with Van Morrison
EXTD=YEAR: 2004
EXTT0=
EXTT1=
EXTT2=
EXTT3=
EXTT4=
EXTT5=
EXTT6=
EXTT7=
EXTT8=
EXTT9=
EXTT10=
EXTT11=
PLAYORDER=
